{
    "asset" : {
        "generator" : "Khronos glTF Blender I/O v3.3.36",
        "version" : "2.0"
    },
    "scene" : 0,
    "scenes" : [
        {
            "name" : "Scene",
            "nodes" : [
                0
            ]
        }
    ],
    "nodes" : [
        {
            "mesh" : 0,
            "name" : "head.10",
            "scale" : [
                1.1583054065704346,
                1.1583054065704346,
                1.1583054065704346
            ]
        }
    ],
    "meshes" : [
        {
            "name" : "matilda.000",
            "primitives" : [
                {
                    "attributes" : {
                        "POSITION" : 0,
                        "NORMAL" : 1,
                        "TANGENT" : 2,
                        "TEXCOORD_0" : 3
                    },
                    "indices" : 4
                }
            ]
        }
    ],
    "accessors" : [
        {
            "bufferView" : 0,
            "componentType" : 5126,
            "count" : 1755,
            "max" : [
                17.06523895263672,
                27.449581146240234,
                21.37202262878418
            ],
            "min" : [
                -17.065237045288086,
                -35.39919662475586,
                -22.197452545166016
            ],
            "type" : "VEC3"
        },
        {
            "bufferView" : 1,
            "componentType" : 5126,
            "count" : 1755,
            "type" : "VEC3"
        },
        {
            "bufferView" : 2,
            "componentType" : 5126,
            "count" : 1755,
            "type" : "VEC4"
        },
        {
            "bufferView" : 3,
            "componentType" : 5126,
            "count" : 1755,
            "type" : "VEC2"
        },
        {
            "bufferView" : 4,
            "componentType" : 5123,
            "count" : 5916,
            "type" : "SCALAR"
        }
    ],
    "bufferViews" : [
        {
            "buffer" : 0,
            "byteLength" : 21060,
            "byteOffset" : 0,
            "target" : 34962
        },
        {
            "buffer" : 0,
            "byteLength" : 21060,
            "byteOffset" : 21060,
            "target" : 34962
        },
        {
            "buffer" : 0,
            "byteLength" : 28080,
            "byteOffset" : 42120,
            "target" : 34962
        },
        {
            "buffer" : 0,
            "byteLength" : 14040,
            "byteOffset" : 70200,
            "target" : 34962
        },
        {
            "buffer" : 0,
            "byteLength" : 11832,
            "byteOffset" : 84240,
            "target" : 34963
        }
    ],
    "buffers" : [
        {
            "byteLength" : 96072,
            "uri" : "data:application/octet-stream;base64,"
        }
    ]
}
