{
    "asset" : {
        "generator" : "Khronos glTF Blender I/O v3.3.36",
        "version" : "2.0"
    },
    "scene" : 0,
    "scenes" : [
        {
            "name" : "Scene",
            "nodes" : [
                0
            ]
        }
    ],
    "nodes" : [
        {
            "mesh" : 0,
            "name" : "10_HairStrand01",
            "scale" : [
                1,
                1,
                1.0806491374969482
            ]
        }
    ],
    "meshes" : [
        {
            "name" : "Cube.067",
            "primitives" : [
                {
                    "attributes" : {
                        "POSITION" : 0,
                        "NORMAL" : 1,
                        "TANGENT" : 2,
                        "TEXCOORD_0" : 3
                    },
                    "indices" : 4
                }
            ]
        }
    ],
    "accessors" : [
        {
            "bufferView" : 0,
            "componentType" : 5126,
            "count" : 8048,
            "max" : [
                33.163673400878906,
                37.624542236328125,
                24.217077255249023
            ],
            "min" : [
                -37.49262619018555,
                -36.30645751953125,
                -40.219329833984375
            ],
            "type" : "VEC3"
        },
        {
            "bufferView" : 1,
            "componentType" : 5126,
            "count" : 8048,
            "type" : "VEC3"
        },
        {
            "bufferView" : 2,
            "componentType" : 5126,
            "count" : 8048,
            "type" : "VEC4"
        },
        {
            "bufferView" : 3,
            "componentType" : 5126,
            "count" : 8048,
            "type" : "VEC2"
        },
        {
            "bufferView" : 4,
            "componentType" : 5123,
            "count" : 43392,
            "type" : "SCALAR"
        }
    ],
    "bufferViews" : [
        {
            "buffer" : 0,
            "byteLength" : 96576,
            "byteOffset" : 0,
            "target" : 34962
        },
        {
            "buffer" : 0,
            "byteLength" : 96576,
            "byteOffset" : 96576,
            "target" : 34962
        },
        {
            "buffer" : 0,
            "byteLength" : 128768,
            "byteOffset" : 193152,
            "target" : 34962
        },
        {
            "buffer" : 0,
            "byteLength" : 64384,
            "byteOffset" : 321920,
            "target" : 34962
        },
        {
            "buffer" : 0,
            "byteLength" : 86784,
            "byteOffset" : 386304,
            "target" : 34963
        }
    ],
    "buffers" : [
        {
            "byteLength" : 473088,
            "uri" : "data:application/octet-stream;base64,"
        }
    ]
}
